{"glyphs":{"0":{"ha":778,"x_min":29,"x_max":747,"o":"m 747 840 l 744 96 l 617 0 l 131 14 l 39 146 l 29 854 l 175 957 l 596 957 l 747 840 m 471 718 l 307 728 l 318 260 l 450 246 l 471 718 z "},"1":{"ha":558,"x_min":69,"x_max":526,"o":"m 513 957 l 526 0 l 190 4 l 186 611 l 81 621 l 69 840 l 260 975 l 513 957 z "},"2":{"ha":790,"x_min":69,"x_max":763,"o":"m 282 972 l 583 979 l 760 813 l 760 539 l 551 288 l 760 297 l 763 3 l 178 -1 l 164 240 l 451 569 l 451 672 l 339 675 l 211 572 l 69 796 l 282 972 z "},"3":{"ha":679,"x_min":22,"x_max":657,"o":"m 618 985 l 625 676 l 451 551 l 639 467 l 657 226 l 525 0 l 26 3 l 22 268 l 340 279 l 336 375 l 126 457 l 124 581 l 272 708 l 38 701 l 22 961 l 618 985 z "},"4":{"ha":771,"x_min":69,"x_max":742,"o":"m 288 982 l 699 986 l 742 4 l 450 0 l 443 213 l 106 224 l 69 461 l 288 982 m 376 467 l 444 471 l 444 688 l 376 467 z "},"5":{"ha":771,"x_min":1,"x_max":746,"o":"m 729 978 l 739 719 l 356 729 l 358 676 l 717 569 l 746 233 l 618 28 l 328 0 l 1 151 l 68 368 l 363 249 l 449 308 l 433 408 l 72 539 l 75 989 l 729 978 z "},"6":{"ha":718,"x_min":29,"x_max":688,"o":"m 685 988 l 688 711 l 318 690 l 311 585 l 574 596 l 688 471 l 688 7 l 167 10 l 29 163 l 32 775 l 135 969 l 685 988 m 308 361 l 299 233 l 419 233 l 429 354 l 308 361 z "},"7":{"ha":622,"x_min":69,"x_max":611,"o":"m 608 990 l 611 711 l 413 19 l 125 13 l 321 696 l 79 693 l 69 986 l 608 990 z "},"8":{"ha":753,"x_min":29,"x_max":722,"o":"m 29 933 l 150 1008 l 572 1013 l 711 919 l 721 582 l 611 479 l 718 429 l 722 121 l 619 22 l 186 4 l 40 85 l 40 421 l 160 496 l 32 582 l 29 933 m 299 815 l 299 635 l 461 638 l 451 814 l 299 815 m 299 392 l 299 211 l 461 214 l 451 390 l 299 392 z "},"9":{"ha":732,"x_min":26,"x_max":703,"o":"m 26 24 l 36 304 l 411 297 l 411 417 l 149 406 l 36 531 l 36 850 l 207 1006 l 692 990 l 703 225 l 597 29 l 26 24 m 415 640 l 422 768 l 301 768 l 292 647 l 415 640 z "},"\u0000":{"ha":0,"x_min":0,"x_max":0,"o":""},"\n":{"ha":0,"x_min":0,"x_max":0,"o":""},"\r":{"ha":0,"x_min":0,"x_max":0,"o":""}," ":{"ha":503,"x_min":0,"x_max":0,"o":""},"A":{"ha":867,"x_min":-4,"x_max":875,"o":"m 93 668 l 76 956 l 644 974 l 875 13 l 564 -6 l 542 125 l 322 118 l 297 1 l -4 -3 l 151 674 l 93 668 m 489 410 l 443 644 l 390 410 l 489 410 z "},"B":{"ha":894,"x_min":-4,"x_max":889,"o":"m 833 651 l 701 538 l 857 446 l 889 151 l 656 -19 l 131 -10 l 135 688 l 11 678 l -4 965 l 796 1014 l 833 651 m 397 256 l 550 260 l 546 351 l 390 436 l 397 256 m 544 693 l 547 754 l 390 739 l 390 607 l 544 693 z "},"C":{"ha":843,"x_min":-3,"x_max":835,"o":"m 829 728 l 404 714 l 411 344 l 482 283 l 832 306 l 835 51 l 343 8 l 128 146 l 135 678 l 11 671 l -3 957 l 797 1000 l 829 728 z "},"D":{"ha":846,"x_min":-4,"x_max":822,"o":"m 10 676 l -4 964 l 674 968 l 808 851 l 822 178 l 697 29 l 144 22 l 138 685 l 10 676 m 397 278 l 554 299 l 544 681 l 393 701 l 397 278 z "},"E":{"ha":792,"x_min":-3,"x_max":783,"o":"m 11 671 l -3 958 l 783 981 l 779 694 l 454 690 l 454 553 l 642 553 l 642 379 l 457 372 l 457 269 l 751 269 l 763 -3 l 150 0 l 140 678 l 11 671 z "},"F":{"ha":779,"x_min":-6,"x_max":783,"o":"m 783 981 l 781 694 l 454 690 l 454 601 l 667 601 l 667 367 l 457 357 l 461 3 l 150 0 l 147 669 l 15 669 l -6 961 l 783 981 z "},"G":{"ha":868,"x_min":4,"x_max":854,"o":"m 796 988 l 810 708 l 421 667 l 393 310 l 571 319 l 561 401 l 481 399 l 499 583 l 818 601 l 854 3 l 593 -1 l 589 40 l 256 -1 l 61 158 l 115 672 l 19 665 l 4 953 l 796 988 z "},"H":{"ha":986,"x_min":-1,"x_max":960,"o":"m 15 671 l -1 957 l 467 960 l 474 617 l 619 617 l 617 964 l 946 960 l 960 3 l 624 7 l 621 332 l 476 328 l 481 3 l 143 7 l 140 678 l 15 671 z "},"I":{"ha":506,"x_min":-4,"x_max":478,"o":"m 10 671 l -4 957 l 464 960 l 478 3 l 142 7 l 138 678 l 10 671 z "},"J":{"ha":803,"x_min":-11,"x_max":774,"o":"m 311 676 l 297 964 l 763 953 l 774 160 l 681 -3 l 185 -10 l 21 89 l -11 329 l 261 354 l 271 242 l 440 267 l 440 685 l 311 676 z "},"K":{"ha":1014,"x_min":-4,"x_max":989,"o":"m 13 672 l -4 958 l 464 961 l 468 614 l 553 621 l 649 731 l 653 958 l 982 949 l 989 619 l 822 481 l 982 353 l 989 -6 l 664 1 l 653 257 l 568 364 l 472 364 l 479 3 l 142 7 l 138 678 l 13 672 z "},"L":{"ha":722,"x_min":-4,"x_max":726,"o":"m 11 649 l -4 935 l 460 938 l 464 307 l 719 311 l 726 19 l 156 10 l 142 658 l 11 649 z "},"M":{"ha":1139,"x_min":-3,"x_max":1114,"o":"m 11 675 l -3 963 l 504 979 l 618 661 l 756 969 l 1086 963 l 1114 -1 l 819 -1 l 813 388 l 714 19 l 557 8 l 464 358 l 446 -3 l 121 7 l 132 683 l 11 675 z "},"N":{"ha":990,"x_min":-3,"x_max":969,"o":"m 13 686 l -3 974 l 451 964 l 650 571 l 632 972 l 969 963 l 935 40 l 672 19 l 451 364 l 463 21 l 138 25 l 138 692 l 13 686 z "},"O":{"ha":825,"x_min":18,"x_max":803,"o":"m 163 982 l 631 982 l 782 879 l 803 171 l 717 39 l 185 25 l 53 121 l 18 865 l 163 982 m 339 272 l 519 286 l 510 754 l 297 744 l 339 272 z "},"P":{"ha":879,"x_min":-6,"x_max":872,"o":"m 10 671 l -6 957 l 710 947 l 872 756 l 857 351 l 676 244 l 475 247 l 479 3 l 142 7 l 138 678 l 10 671 m 594 515 l 601 703 l 467 696 l 469 508 l 594 515 z "},"Q":{"ha":849,"x_min":17,"x_max":847,"o":"m 164 983 l 632 983 l 783 881 l 804 172 l 776 131 l 847 38 l 621 -132 l 501 35 l 183 25 l 53 121 l 17 865 l 164 983 m 339 274 l 522 288 l 511 756 l 301 746 l 339 274 z "},"R":{"ha":864,"x_min":-3,"x_max":844,"o":"m 13 671 l -3 957 l 703 964 l 844 756 l 829 431 l 724 342 l 838 235 l 838 0 l 564 0 l 568 185 l 447 283 l 451 3 l 143 7 l 140 678 l 13 671 m 567 550 l 574 703 l 439 696 l 442 544 l 567 550 z "},"S":{"ha":829,"x_min":-12,"x_max":813,"o":"m 3 686 l -12 972 l 781 1011 l 781 703 l 458 707 l 463 626 l 792 471 l 813 138 l 706 -4 l 174 3 l 174 279 l 492 268 l 501 350 l 168 489 l 157 694 l 3 686 z "},"T":{"ha":672,"x_min":-6,"x_max":676,"o":"m -1 964 q 328 963 164 964 q 661 961 493 961 l 676 660 l 506 663 l 515 3 l 179 7 l 175 663 l -6 663 l -1 964 z "},"U":{"ha":989,"x_min":-8,"x_max":961,"o":"m 8 667 l -8 954 l 456 965 l 469 274 l 653 274 l 650 954 l 961 958 l 951 147 l 832 -10 l 328 -21 l 171 104 l 146 678 l 8 667 z "},"V":{"ha":975,"x_min":-4,"x_max":953,"o":"m 10 653 l -4 940 l 460 947 l 449 349 l 565 218 l 658 367 l 640 951 l 953 951 l 946 239 l 769 11 l 383 1 l 153 274 l 143 663 l 10 653 z "},"W":{"ha":1199,"x_min":-6,"x_max":1192,"o":"m 10 656 l -6 943 l 449 968 l 474 400 l 574 814 l 754 807 l 854 517 l 886 960 l 1192 953 l 1121 229 l 951 24 l 728 28 l 657 283 l 576 21 l 367 21 l 175 238 l 150 665 l 10 656 z "},"X":{"ha":983,"x_min":-6,"x_max":968,"o":"m 10 642 l -6 929 l 472 944 l 486 678 l 564 600 l 653 678 l 646 954 l 954 972 l 965 699 l 794 493 l 957 290 l 968 18 l 650 4 l 640 263 l 576 347 l 490 272 l 481 -8 l 163 -6 l 188 367 l 344 497 l 161 586 l 157 653 l 10 642 z "},"Y":{"ha":900,"x_min":-11,"x_max":896,"o":"m 4 693 l -11 981 l 432 983 l 428 682 l 510 604 l 599 703 l 588 986 l 893 997 l 896 583 l 679 382 l 686 51 l 378 40 l 367 376 l 129 560 l 129 704 l 4 693 z "},"Z":{"ha":810,"x_min":-3,"x_max":803,"o":"m 742 958 l 763 682 l 515 325 l 782 335 l 803 72 l 158 50 l 158 324 l 414 642 l 13 628 l -3 954 l 742 958 z "},"a":{"ha":861,"x_min":-10,"x_max":869,"o":"m 639 974 l 869 13 l 558 -6 l 536 125 l 317 118 l 292 1 l -10 -3 l 213 961 l 639 974 m 482 410 l 436 644 l 383 410 l 482 410 z "},"b":{"ha":797,"x_min":33,"x_max":792,"o":"m 697 1014 l 736 653 l 604 539 l 760 447 l 792 153 l 558 -18 l 33 -8 l 40 971 l 697 1014 m 300 258 l 453 263 l 449 354 l 293 439 l 300 258 m 447 696 l 450 757 l 293 742 l 293 610 l 447 696 z "},"c":{"ha":746,"x_min":28,"x_max":735,"o":"m 729 728 l 304 714 l 311 344 l 382 283 l 732 306 l 735 51 l 243 8 l 28 146 l 38 964 l 697 1000 l 729 728 z "},"d":{"ha":740,"x_min":31,"x_max":718,"o":"m 31 968 l 569 968 l 704 851 l 718 178 l 593 29 l 40 22 l 31 968 m 293 278 l 450 299 l 440 681 l 289 701 l 293 278 z "},"e":{"ha":688,"x_min":31,"x_max":678,"o":"m 678 981 l 674 694 l 349 690 l 349 553 l 536 553 l 536 379 l 351 372 l 351 269 l 646 269 l 657 -3 l 44 0 l 31 964 l 678 981 z "},"f":{"ha":732,"x_min":3,"x_max":735,"o":"m 735 981 l 732 694 l 406 690 l 406 601 l 618 601 l 618 367 l 408 357 l 413 3 l 101 0 l 99 669 l 24 665 l 3 957 l 735 981 z "},"g":{"ha":817,"x_min":8,"x_max":801,"o":"m 743 986 l 757 707 l 368 665 l 340 308 l 518 318 l 508 400 l 428 397 l 446 582 l 765 600 l 801 1 l 540 -3 l 536 39 l 203 -3 l 8 157 l 93 957 l 743 986 z "},"h":{"ha":883,"x_min":33,"x_max":854,"o":"m 361 960 l 368 617 l 514 617 l 511 964 l 840 960 l 854 3 l 518 7 l 515 332 l 371 328 l 375 3 l 38 7 l 33 964 l 361 960 z "},"i":{"ha":403,"x_min":33,"x_max":374,"o":"m 360 960 l 374 3 l 38 7 l 33 964 l 360 960 z "},"j":{"ha":804,"x_min":-11,"x_max":774,"o":"m 763 953 l 774 160 l 681 -3 l 185 -10 l 21 89 l -11 329 l 261 354 l 271 242 l 440 267 l 440 968 l 763 953 z "},"k":{"ha":911,"x_min":33,"x_max":885,"o":"m 360 961 l 364 614 l 449 621 l 544 731 l 549 958 l 878 949 l 885 619 l 718 481 l 878 353 l 885 -6 l 560 1 l 549 257 l 464 364 l 368 364 l 375 3 l 38 7 l 33 964 l 360 961 z "},"l":{"ha":611,"x_min":26,"x_max":615,"o":"m 349 938 l 353 307 l 608 311 l 615 19 l 44 10 l 26 942 l 349 938 z "},"m":{"ha":1049,"x_min":29,"x_max":1022,"o":"m 413 979 l 526 661 l 664 969 l 994 963 l 1022 -1 l 728 -1 l 721 388 l 622 19 l 465 8 l 372 358 l 354 -3 l 29 7 l 44 968 l 413 979 z "},"n":{"ha":889,"x_min":35,"x_max":865,"o":"m 349 961 l 544 599 l 528 971 l 865 961 l 831 39 l 568 18 l 388 343 l 397 18 l 35 25 l 35 975 l 349 961 z "},"o":{"ha":826,"x_min":18,"x_max":803,"o":"m 163 982 l 631 982 l 782 879 l 803 171 l 717 39 l 185 25 l 53 121 l 18 865 l 163 982 m 339 272 l 519 286 l 510 754 l 297 744 l 339 272 z "},"p":{"ha":776,"x_min":33,"x_max":768,"o":"m 606 947 l 768 756 l 753 351 l 572 244 l 371 247 l 375 3 l 38 7 l 33 964 l 606 947 m 490 515 l 497 703 l 363 696 l 365 508 l 490 515 z "},"q":{"ha":851,"x_min":18,"x_max":849,"o":"m 165 983 l 633 983 l 785 881 l 806 172 l 778 131 l 849 38 l 622 -132 l 503 35 l 185 25 l 54 121 l 18 865 l 165 983 m 340 274 l 524 288 l 513 756 l 303 746 l 340 274 z "},"r":{"ha":760,"x_min":33,"x_max":739,"o":"m 33 964 l 597 964 l 739 756 l 724 431 l 618 342 l 732 235 l 732 0 l 458 0 l 463 185 l 342 283 l 346 3 l 38 7 l 33 964 m 463 551 l 469 704 l 335 697 l 338 546 l 463 551 z "},"s":{"ha":696,"x_min":17,"x_max":679,"o":"m 149 994 l 647 1010 l 647 701 l 325 706 l 329 625 l 658 469 l 679 136 l 572 -6 l 40 1 l 40 278 l 358 267 l 368 349 l 35 488 l 17 838 l 149 994 z "},"t":{"ha":674,"x_min":-6,"x_max":676,"o":"m 207 964 l 661 961 l 676 660 l 506 663 l 515 3 l 179 7 l 175 663 l -6 663 l -1 964 l 207 964 z "},"u":{"ha":875,"x_min":19,"x_max":846,"o":"m 340 965 l 354 274 l 538 274 l 535 954 l 846 958 l 836 147 l 717 -10 l 213 -21 l 56 104 l 19 961 l 340 965 z "},"v":{"ha":858,"x_min":18,"x_max":835,"o":"m 342 949 l 331 350 l 447 219 l 540 368 l 522 953 l 835 953 l 828 240 l 651 13 l 265 3 l 35 275 l 18 946 l 342 949 z "},"w":{"ha":1078,"x_min":13,"x_max":1071,"o":"m 328 968 l 353 400 l 453 814 l 633 807 l 733 517 l 765 960 l 1071 953 l 1000 229 l 831 24 l 607 28 l 536 283 l 456 21 l 246 21 l 54 238 l 13 947 l 328 968 z "},"x":{"ha":863,"x_min":13,"x_max":847,"o":"m 351 944 l 365 678 l 443 600 l 532 678 l 525 954 l 833 972 l 844 699 l 674 493 l 836 290 l 847 18 l 529 4 l 519 263 l 456 347 l 369 272 l 360 -8 l 42 -6 l 67 367 l 224 497 l 40 586 l 13 936 l 351 944 z "},"y":{"ha":775,"x_min":4,"x_max":771,"o":"m 307 982 l 303 681 l 385 603 l 474 701 l 463 985 l 768 996 l 771 582 l 554 381 l 561 50 l 253 39 l 242 375 l 4 558 l 7 986 l 307 982 z "},"z":{"ha":676,"x_min":18,"x_max":669,"o":"m 608 960 l 629 683 l 382 326 l 649 336 l 669 74 l 25 51 l 25 325 l 281 643 l 33 633 l 18 960 l 608 960 z "}," ":{"ha":503,"x_min":0,"x_max":0,"o":""},"­":{"ha":0,"x_min":0,"x_max":0,"o":""}}}
